<svg xmlns="http://www.w3.org/2000/svg" version="1.1" xmlns:xlink="http://www.w3.org/1999/xlink" width="2000" height="1500" viewBox="0 0 2000 1500"><rect width="2000" height="1500" x="0" y="0" id="background" stroke="transparent" fill="#ffffff"></rect><svg xml:space="preserve" width="1500" height="1125" data-version="2" data-id="lg_x8qHCyyWFWURrZU2Em" viewBox="0 0 571 133" x="250" y="187.5"><rect width="100%" height="100%" fill="transparent"></rect><g transform="translate(281.7 35.99)"><filter id="a" width="140%" height="140%" x="-20%" y="-20%"><feGaussianBlur in="SourceAlpha"></feGaussianBlur><feOffset result="oBlur"></feOffset><feFlood flood-color="#F75CFF" flood-opacity="1"></feFlood><feComposite in2="oBlur" operator="in"></feComposite><feMerge><feMergeNode></feMergeNode><feMergeNode in="SourceGraphic"></feMergeNode></feMerge></filter><g filter="url(#a)"><path fill="#1b1b1b" d="M-233.105 33.385q-7.37 0-13.33-2.72-5.96-2.73-10.2-7.38-4.24-4.64-6.47-10.55-2.22-5.91-2.22-12.37 0-8.39 2.88-14.85 2.88-6.46 7.63-10.91 4.74-4.44 10.45-6.71 5.71-2.28 11.26-2.28 7.58 0 13.58 2.73 6.01 2.73 10.26 7.37 4.24 4.65 6.46 10.56 2.22 5.91 2.22 12.27 0 8.38-2.93 14.85-2.93 6.46-7.77 10.9-4.85 4.45-10.56 6.77-5.7 2.32-11.26 2.32m-.1-4.44q7.17 0 11.72-4.24 4.54-4.24 6.71-11.16t2.17-15q0-7.58-2.27-14.09t-6.82-10.5q-4.54-3.99-11.51-3.99-7.07 0-11.57 4.19-4.49 4.19-6.61 11.01-2.12 6.81-2.12 14.89 0 7.58 2.17 14.19 2.17 6.62 6.72 10.66 4.54 4.04 11.41 4.04"></path><rect width="64.74" height="67.77" x="-32.37" y="-33.88" fill="none" rx="0" ry="0" transform="translate(-232.46)"></rect><path fill="#1b1b1b" d="M-200.985 32.585q-2.73 0-4.55-1.77-1.81-1.77-1.81-4.6 0-2.62 1.81-4.44 1.82-1.82 4.65-1.82 2.73 0 4.59 1.82 1.87 1.82 1.87 4.44 0 2.83-1.87 4.6-1.86 1.77-4.69 1.77"></path><rect width="12.92" height="12.63" x="-6.46" y="-6.32" fill="none" rx="0" ry="0" transform="translate(-200.38 26.77)"></rect><path fill="#1b1b1b" d="M-158.465 33.385q-8.48 0-15.55-4.04t-11.37-11.51q-4.29-7.47-4.29-17.88 0-10.3 4.04-18.03 4.04-7.72 11.46-12.01 7.43-4.3 17.53-4.3 3.63 0 7.52.71 3.89.71 7.22 2.37 3.34 1.67 5.41 4.4 2.07 2.72 2.07 6.76.1 4.35-2.63 7.63-2.73 3.28-7.67 3.28-3.03 0-4.3-1.46-1.26-1.47-1.16-2.17 0-.31 1.26-1.06 1.27-.76 2.53-2.33 1.26-1.56 1.26-4.19 0-4.54-3.03-7.22-3.03-2.68-8.58-2.68-6.06 0-10.86 3.44-4.8 3.43-7.53 10.05-2.72 6.61-2.72 16.21 0 8.08 2.88 14.69 2.87 6.62 8.08 10.51 5.2 3.89 12.07 3.89 5.45 0 9.34-2.28 3.89-2.27 7.02-7.32.91-1.72 3.23-.3.91.6 1.41 1.46.51.86-.2 1.77-3.84 4.85-7.27 7.32-3.43 2.48-7.47 3.39-4.04.9-9.7.9"></path><rect width="56.21" height="67.77" x="-28.11" y="-33.88" fill="none" rx="0" ry="0" transform="translate(-161.07)"></rect><path fill="#1b1b1b" d="M-101.505 31.675q-.91 0-1.31-.71t-.4-1.51q.1-1.72.8-1.92.71-.21 1.72-.21 3.23 0 4.55-1.16 1.31-1.16 1.66-2.93.36-1.76.36-3.68v-40.1q0-1.92-.36-3.69-.35-1.76-1.66-2.93-1.32-1.16-4.55-1.16-1.01 0-1.72-.2-.7-.2-.8-1.92 0-.81.4-1.51.4-.71 1.31-.71 3.34.1 6.16.2 2.83.1 5.86.1h31.72q1.11 0 1.86.51.76.5.76 1.92l.31 14.14q0 1.01-.96 1.51-.96.51-1.77.51-1.11 0-2.02-.46-.91-.45-1.11-1.36-.71-4.55-1.67-7.32-.96-2.78-2.83-4.04-1.87-1.27-5.4-1.37h-13.53v25.66h18.28q.8.1 1.16.81.35.7.35 1.51 0 .71-.35 1.36-.36.66-1.16.66h-18.28v19.09q.1 1.31.4 2.88.3 1.56 1.77 2.67 1.46 1.12 4.9 1.01h9.29q3.53-.1 5.4-1.16 1.87-1.06 2.98-3.58 1.11-2.53 2.42-6.97.41-1.01 1.37-1.31.96-.31 2.07-.11.81.11 1.66.71.86.61.76 1.62l-2.02 12.72q-.3 1.42-.96 1.77-.65.35-1.97.35h-33.33q-3.03 0-5.91.05-2.87.06-6.21.26"></path><rect width="52.15" height="64.34" x="-26.08" y="-32.17" fill="none" rx="0" ry="0" transform="translate(-76.64)"></rect><path fill="#1b1b1b" d="M-41.405 31.675q-1.01 0-1.42-.71-.4-.71-.4-1.51.1-1.72.81-1.92.71-.21 1.72-.21 3.23 0 4.54-1.16t1.67-2.93q.35-1.76.35-3.68v-40q0-1.92-.35-3.74-.36-1.81-1.67-2.98-1.31-1.16-4.54-1.16-1.01 0-1.72-.2t-.81-1.92q0-.81.4-1.51.41-.71 1.42-.71 3.23.1 6.11.2 2.88.1 5.91.1h17.37q8.18.1 13.28 2.53 5.1 2.42 7.42 6.16 2.33 3.74 2.33 7.78 0 5.35-4.3 10.1-4.29 4.74-12.06 6.76 3.83 6.06 7.77 12.17 3.94 6.11 9.09 11.47 1.42 1.11 2.78 1.82 1.36.7 3.28.9.81.11 1.62.26.81.15.91 1.87 0 .8-.41 1.51-.4.71-1.41.71-2.12-.1-3.38-.15-1.27-.05-2.48-.11-1.21-.05-3.23-.05-4.14-.8-7.02-2.92-2.88-2.13-5.61-5.86-2.82-3.84-5.25-7.78-2.42-3.94-4.74-7.68-1.32-2.12-2.68-3.08t-5.1-.96h-2.93v16.47q.1 1.92.4 3.68.31 1.77 1.67 2.93 1.36 1.16 4.49 1.16 1.01 0 1.72.21.71.2.81 1.92 0 .8-.4 1.51-.41.71-1.42.71-6.46-.31-12.62-.31-3.03 0-5.86.05-2.83.06-6.06.26m17.27-32.52h8.89q5.15 0 8.13-1.42 2.98-1.41 4.49-3.63 1.52-2.23 1.97-4.65.46-2.42.46-4.44 0-3.34-1.47-6.47-1.46-3.13-5.15-5.15-3.69-2.02-10.25-2.02-4.34 0-5.71 1.67-1.36 1.66-1.36 6.71Z"></path><rect width="63.33" height="64.34" x="-31.66" y="-32.17" fill="none" rx="0" ry="0" transform="translate(-11.06)"></rect><path fill="#1b1b1b" d="M26.265 31.675q-1.01 0-1.42-.71-.4-.71-.4-1.51.1-1.72.81-1.92.71-.21 1.72-.21 3.23 0 4.54-1.16t1.67-2.93q.35-1.76.45-3.68v-40.1q-.1-1.92-.45-3.69-.36-1.76-1.67-2.93-1.31-1.16-4.54-1.16-1.01 0-1.72-.2t-.81-1.92q0-.81.4-1.51.41-.71 1.42-.71 3.23.1 6.11.2 2.88.1 5.91.1 6.16 0 12.62-.3.91 0 1.37.71.45.7.45 1.51-.1 1.72-.81 1.92-.7.2-1.82.2-3.13 0-4.49 1.16-1.36 1.17-1.67 2.93-.3 1.77-.4 3.69v40.1q.1 1.92.4 3.68.31 1.77 1.67 2.93 1.36 1.16 4.49 1.16 1.12 0 1.82.21.71.2.81 1.92 0 .8-.45 1.51-.46.71-1.37.71-6.46-.31-12.52-.31-3.03 0-5.96.05-2.93.06-6.16.26"></path><rect width="28.28" height="64.34" x="-14.14" y="-32.17" fill="none" rx="0" ry="0" transform="translate(39.09)"></rect><path fill="#1b1b1b" d="M59.495 31.675q-1.01 0-1.42-.71-.4-.71-.4-1.51.1-1.72.81-1.92.7-.21 1.71-.21 2.63 0 4.25-.6 1.61-.61 3.08-2.12 1.46-1.52 3.28-4.14l14.64-20.81-12.92-20.3q-2.53-3.84-4.85-5.51-2.32-1.66-5.56-2.37-1.41-.3-1.97-.5-.55-.21-.55-1.82 0-1.72 1.21-1.87 1.21-.15 2.83-.15 4.75 0 8.13 1.01 3.38 1.01 6.06 3.33 2.68 2.32 5.3 6.16l8.28 13.54 10-14.55q2.22-3.33.66-4.14-1.57-.81-5.1-.81-1.01 0-1.72-.2t-.81-1.92q0-.81.41-1.51.4-.71 1.31-.71 3.23.1 5.61.2 2.37.1 5.4.1 3.03 0 5-.1 1.97-.1 5.2-.2 1.01 0 1.41.71.41.7.41 1.51-.1 1.72-.76 1.92-.66.2-1.77.2-2.52 0-4.24.61-1.72.61-3.13 2.12-1.41 1.52-3.23 4.14l-11.82 16.77 17.58 25.05q1.71 2.52 3.78 4.74t5.41 2.22q1.11 0 1.76.21.66.2.76 1.92 0 .8-.4 1.51-.41.71-1.32.71-3.23-.2-6.16-.26-2.93-.05-5.96-.05-5.75 0-12.32.31-1.01 0-1.41-.71-.41-.71-.41-1.51.11-1.72.81-1.92.71-.21 1.72-.21 3.03 0 3.84-1.51.81-1.52-.61-3.43l-12.93-18.49-12.92 18.49q-2.23 3.23-.61 4.09 1.62.85 5.05.85 1.11 0 1.77.21.65.2.75 1.92 0 .8-.4 1.51t-1.31.71q-3.23-.2-5.61-.26-2.37-.05-5.4-.05-3.03 0-5 .05-1.97.06-5.2.26"></path><rect width="65.85" height="64.54" x="-32.92" y="-32.27" fill="none" rx="0" ry="0" transform="translate(91.1 -.1)"></rect><path fill="#1b1b1b" d="M157.265 33.385q-7.38 0-13.34-2.72-5.96-2.73-10.2-7.38-4.24-4.64-6.46-10.55-2.22-5.91-2.22-12.37 0-8.39 2.87-14.85 2.88-6.46 7.63-10.91 4.75-4.44 10.45-6.71 5.71-2.28 11.27-2.28 7.57 0 13.58 2.73t10.25 7.37q4.24 4.65 6.47 10.56 2.22 5.91 2.22 12.27 0 8.38-2.93 14.85-2.93 6.46-7.78 10.9-4.85 4.45-10.55 6.77-5.71 2.32-11.26 2.32m-.11-4.44q7.18 0 11.72-4.24 4.55-4.24 6.72-11.16t2.17-15q0-7.58-2.27-14.09-2.28-6.51-6.82-10.5-4.55-3.99-11.52-3.99-7.07 0-11.56 4.19t-6.62 11.01q-2.12 6.81-2.12 14.89 0 7.58 2.17 14.19 2.18 6.62 6.72 10.66 4.55 4.04 11.41 4.04"></path><rect width="64.74" height="67.77" x="-32.37" y="-33.88" fill="none" rx="0" ry="0" transform="translate(157.91)"></rect><path fill="#1b1b1b" d="M199.575 31.675q-1.01 0-1.41-.71-.4-.71-.4-1.51.1-1.72.8-1.92.71-.21 1.72-.21 3.23 0 4.5-1.16 1.26-1.16 1.56-2.93.3-1.76.3-3.68l.21-40.1q0-4.75-1.62-6.06-1.62-1.31-5.15-2.02-1.52-.3-2.02-.56-.51-.25-.51-1.76 0-1.72 1.22-1.87 1.21-.15 2.82-.15 5.66 0 9.14.91 3.49.91 6.17 3.23 2.67 2.32 5.8 6.56l27.68 36.36h.3l-.2-34.64q0-1.92-.3-3.69-.31-1.76-1.57-2.93-1.26-1.16-4.49-1.16-1.01 0-1.72-.2t-.91-1.92q0-.81.45-1.51.46-.71 1.37-.71 2.22.1 3.58.15l2.73.1q1.36.05 3.38.05 2.02 0 3.34-.05l2.67-.1q1.37-.05 3.49-.15 1.01 0 1.41.71.41.7.41 1.51-.11 1.72-.76 1.92-.66.2-1.77.2-3.13 0-4.44 1.16-1.32 1.17-1.57 2.93-.25 1.77-.35 3.69l-.2 50.9q-.11.81-.96 1.06-.86.26-1.57.26-1.92 0-2.93-1.32l-38.08-50.9h-.3l.2 40.1q.1 1.92.36 3.68.25 1.77 1.56 2.93 1.32 1.16 4.45 1.16 1.11 0 1.81.21.71.2.81 1.92 0 .8-.45 1.51-.46.71-1.37.71-2.12-.1-3.58-.15-1.47-.05-2.83-.11-1.36-.05-3.38-.05-2.02 0-3.29.05-1.26.06-2.57.11-1.31.05-3.54.15"></path><rect width="66.77" height="64.64" x="-33.38" y="-32.32" fill="none" rx="0" ry="0" transform="translate(231.44 -.14)"></rect></g></g><path stroke="#dcdcdc" stroke-width="2.67" d="M5.495 114.428h560.01"></path><rect width="95.89" height="38.17" x="-47.95" y="-19.08" fill="#ffffff" rx="0" ry="0" transform="translate(280.67 114.42)scale(.8897)"></rect><path fill="#dcdcdc" d="M253.614 107.284q1.808 1.085 2.53 3.435l.363.362 4.7 1.989-1.808-1.628a5.424 5.424 0 0 1-2.17-3.615l.362-4.339v-.18l1.808 1.084q1.446 1.265 2.17 3.073.723 2.712.18 5.424v.361q3.616 1.447 7.774 2.35l-1.808-1.084a5.424 5.424 0 0 1-2.53-3.254l-.543-3.616v-1.085l1.446.543q1.808.904 2.893 2.53 1.265 2.17 1.446 4.52v1.627l8.135 1.085-.361-.362-1.627-.542a5.424 5.424 0 0 1-3.255-3.254l-.903-3.435v-.362h.903q2.712.724 4.158 2.531a18.078 18.078 0 0 1 2.35 5.605l8.317-.362-2.712-.723a5.424 5.424 0 0 1-3.073-1.808l-1.989-4.158v-.542h1.989q1.807.361 3.254 1.627 2.35 2.17 3.435 5.062v.361q3.977-.723 7.593-1.988h-1.266a7.231 7.231 0 0 1-3.977-1.446l-2.35-2.531-.904-1.808h.723q2.892-.723 5.062.723 2.17 1.085 3.435 3.073l.904 1.446 6.508-2.892h-1.808a5.424 5.424 0 0 1-3.254-.723 18.078 18.078 0 0 1-3.797-3.616l3.616-.904q1.266 0 2.35.362 2.893 1.084 4.881 3.615h.362q2.712-1.265 5.062-3.254s.362.362-.542 1.808l-1.808.904q-1.446 1.266-3.074 1.808l-.361.723q.542 2.893-.18 5.785a5.424 5.424 0 0 1-2.351 3.435l-1.627 1.085h-.18l-.543-4.881q.18-2.35 1.988-3.978l.904-.904-.361.181q-3.074 1.446-6.328 2.531l-.361.362q0 2.892-1.085 5.423a7.231 7.231 0 0 1-2.893 3.074l-1.807.903-.181-1.807.361-3.254a5.424 5.424 0 0 1 2.712-3.255l.723-.542-7.231 1.446q0 1.266-.723 2.712l-2.17 3.616-4.338 1.808q0-3.074 1.627-5.424a5.424 5.424 0 0 1 2.53-2.17l.724-.36h-7.05l-1.447 3.253a7.231 7.231 0 0 1-6.69 3.616h-.36l.722-2.531 1.808-2.712q1.266-1.085 2.712-1.446l1.446-.362h-.361l-6.69-1.084h-.542a18.078 18.078 0 0 1-3.796 4.52 7.231 7.231 0 0 1-3.977.722h-1.627l1.084-1.988a7.231 7.231 0 0 1 2.893-2.893l3.073-.723h1.085l-.362-.18-6.689-2.35h-.542a18.078 18.078 0 0 1-4.158 3.615 5.424 5.424 0 0 1-4.158.18l-1.446-.361 2.169-2.712q1.989-1.808 4.52-1.446h2.17-.182l-3.073-1.446h-.362l-2.711-.362-1.808-1.085-1.446-1.988-.724-1.266h1.085q1.808 0 3.616.904"></path></svg></svg>